<?xml version="1.0" encoding="utf-8"?>
<!-- Generator: Adobe Illustrator 24.3.0, SVG Export Plug-In . SVG Version: 6.00 Build 0)  -->
<svg version="1.1" id="Layer_1" xmlns="http://www.w3.org/2000/svg" xmlns:xlink="http://www.w3.org/1999/xlink" x="0px" y="0px"
	 viewBox="0 0 283.46 170.08" style="enable-background:new 0 0 283.46 170.08;" xml:space="preserve">
<style type="text/css">
	.st0{fill:#232323;}
</style>
<path class="st0" d="M179.12,137.97c-1.45,0.06-2.37-0.77-3.31-1.77c-2.92-3.13-6.18-5.86-9.78-8.18
	c-6.09-3.91-12.68-6.46-19.84-7.64c-3.98-0.66-7.97-0.75-11.95-0.51c-5.41,0.32-10.66,1.57-15.67,3.67
	c-5.43,2.27-10.39,5.28-14.77,9.24c-1.47,1.33-2.9,2.68-4.21,4.18c-1.17,1.34-3.68,1.38-5.06,0.17c-1.4-1.23-1.59-3.38-0.44-4.9
	c1.2-1.59,2.66-2.95,4.12-4.28c2.01-1.82,4.14-3.5,6.38-5.04c3.95-2.72,8.15-4.92,12.62-6.65c3.64-1.41,7.41-2.35,11.24-3.03
	c3.57-0.63,7.2-0.71,10.83-0.68c7.65,0.07,14.95,1.71,21.96,4.69c4.91,2.09,9.44,4.83,13.6,8.15c2.57,2.05,5.05,4.22,7.09,6.83
	c0.86,1.1,1.09,2.36,0.47,3.68C181.77,137.22,180.57,137.97,179.12,137.97z"/>
<path class="st0" d="M171.48,146.95c-2.11-2.3-4.11-4.68-6.5-6.72c-3.19-2.73-6.65-4.97-10.51-6.63c-6.92-2.97-14.09-4.11-21.6-3.13
	c-4.23,0.55-8.26,1.71-12.13,3.47c-6.54,2.96-11.7,7.63-16.24,13.08c-0.29,0.35-0.22,0.48,0.17,0.64c1.16,0.45,2.3,0.94,3.45,1.41
	c5.14,2.09,10.4,3.77,15.87,4.74c3.1,0.55,6.19,1.08,9.35,1.11c0.32,0,0.68-0.11,0.95,0.2c2.49,0,4.98,0,7.48,0
	c0.2-0.25,0.48-0.2,0.75-0.2c3.6,0.01,7.13-0.61,10.64-1.29c6.28-1.23,12.27-3.41,18.13-5.94
	C171.77,147.48,171.86,147.36,171.48,146.95z M158.58,144.6c-0.08,0.26-0.39,0.24-0.6,0.3c-3.08,0.93-6.21,1.65-9.39,2.13
	c-4.05,0.62-8.12,0.95-12.22,0.81c-5.84-0.2-11.59-1-17.21-2.64c-0.59-0.17-1.26-0.16-1.8-0.69c2.56-2.03,5.33-3.56,8.31-4.72
	c3.33-1.29,6.76-2.05,10.35-2.26c8.21-0.5,15.54,1.8,22.15,6.6C158.33,144.25,158.68,144.28,158.58,144.6z"/>
<path class="st0" d="M213.86,68.56c-0.62-4.54-1.61-9.02-3.05-13.38c-1.74-5.27-3.96-10.33-6.82-15.1
	c-4.65-7.78-10.38-14.62-17.43-20.35c-5.74-4.67-11.98-8.48-18.8-11.34c-9.51-3.99-19.43-5.96-29.74-6.03
	c-2.42-0.03-4.82,0.17-7.23,0.39c-3.64,0.33-7.23,0.93-10.77,1.79c-7.19,1.74-13.99,4.45-20.39,8.16
	c-5.69,3.3-10.86,7.26-15.54,11.86c-2.75,2.71-5.25,5.64-7.54,8.74c-3.62,4.91-6.65,10.14-9.01,15.78
	c-2.14,5.12-3.71,10.4-4.74,15.84c-0.77,4.08-1.18,8.2-1.24,12.35c-0.03,1.97,0.02,3.95,0.13,5.93c0.13,2.38,0.35,4.74,0.71,7.08
	c0.91,5.8,2.48,11.43,4.63,16.91c1.67,4.23,4.05,7.86,8.1,10.16c6.44,3.66,12.94,3.75,19.24-0.21c3.4-2.14,6.56-4.66,10.12-6.56
	c5.24-2.79,10.77-4.82,16.53-6.24c5.62-1.39,11.34-1.96,17.1-2.02c2.02-0.02,4.07,0.11,6.11,0.3c3.54,0.33,7.03,0.84,10.49,1.66
	c9.44,2.24,18.06,6.18,25.76,12.11c2.8,2.16,6.04,3.33,9.56,3.6c2.91,0.22,5.75-0.26,8.46-1.4c4.26-1.8,7.46-4.75,9.43-8.92
	c1.54-3.28,2.71-6.71,3.71-10.2c1.67-5.84,2.56-11.81,2.85-17.87C214.69,77.24,214.45,72.88,213.86,68.56z M207.21,80.25
	c-0.22,5.89-1,11.71-2.64,17.39c-0.85,2.94-1.84,5.82-3.11,8.6c-1.62,3.54-4.44,5.58-8.28,6.31c-3.82,0.73-6.82-0.85-9.72-3.05
	c-4.14-3.13-8.64-5.65-13.38-7.77c-4.36-1.96-8.87-3.49-13.51-4.59c-3.58-0.85-7.2-1.41-10.87-1.81c-3.96-0.43-7.92-0.46-11.87-0.3
	c-4.37,0.18-8.71,0.81-13,1.78c-6.71,1.52-13.14,3.82-19.23,7.03c-3.66,1.93-7.12,4.16-10.41,6.66c-3.97,3.01-9.33,2.94-13.28-0.05
	c-2.38-1.81-3.44-4.37-4.48-7c-1.74-4.41-2.94-8.97-3.71-13.64c-0.36-2.16-0.67-4.35-0.72-6.57c-0.04-1.84-0.24-3.68-0.19-5.52
	c0.23-8.09,1.66-15.94,4.54-23.52c2.56-6.74,6.09-12.92,10.57-18.54c3.01-3.78,6.4-7.2,10.17-10.26c4.34-3.54,9-6.55,14.05-8.95
	c5.9-2.81,12.08-4.78,18.55-5.83c3.78-0.61,7.57-0.93,10.69-0.99c10.13,0.07,19.2,1.94,27.88,5.6c5.75,2.43,11.06,5.65,15.94,9.52
	c2.28,1.81,4.49,3.74,6.5,5.86c4.09,4.32,7.67,9.03,10.6,14.23c3.88,6.87,6.47,14.2,7.86,21.94c0.49,2.72,0.82,5.47,0.91,8.26
	C207.13,76.77,207.28,78.52,207.21,80.25z"/>
<path class="st0" d="M138.05,18.48c9.99-0.15,19.36,2.35,28.17,7.01c3.8,2.01,7.33,4.44,10.57,7.29c4.18,3.67,7.91,7.73,10.98,12.38
	c4.5,6.8,7.44,14.23,8.93,22.24c0.89,4.77,1.05,9.6,0.79,14.42c-0.24,4.51-1.06,8.95-2.45,13.27c-0.3,0.92-0.6,1.85-0.93,2.76
	c-0.8,2.15-3.1,3.25-5.2,2.5c-2.3-0.81-3.4-3.02-2.6-5.32c1.38-3.97,2.31-8.04,2.72-12.21c0.36-3.67,0.3-7.34-0.14-11.02
	c-0.54-4.38-1.6-8.61-3.24-12.7c-1.98-4.95-4.67-9.48-8.05-13.63c-3.14-3.85-6.77-7.17-10.87-9.93c-5.34-3.6-11.17-6.14-17.47-7.54
	c-2.32-0.51-4.66-0.86-7.03-1.06c-1.95-0.17-3.89-0.16-5.84-0.14c-4.41,0.04-8.72,0.79-12.96,1.97c-6.26,1.73-11.96,4.59-17.08,8.57
	c-4.84,3.76-8.86,8.28-12.07,13.51c-3.75,6.12-5.99,12.79-7.01,19.85c-0.46,3.18-0.64,6.41-0.43,9.63c0.32,4.99,1.16,9.9,2.91,14.6
	c0.72,1.92-0.14,3.97-1.41,4.84c-1.73,1.19-3.83,1.09-5.38-0.29c-0.83-0.74-1.14-1.81-1.47-2.82c-1.14-3.54-2.01-7.14-2.53-10.82
	c-0.56-3.97-0.63-7.98-0.38-11.95c0.41-6.51,1.88-12.83,4.44-18.86c2.22-5.24,5.13-10.08,8.72-14.52c2.13-2.62,4.5-5.01,6.97-7.26
	c2.92-2.66,6.18-4.93,9.62-6.9c4.96-2.84,10.21-4.92,15.76-6.26c2.77-0.67,5.57-1.08,8.4-1.39
	C134.33,18.47,136.17,18.6,138.05,18.48z"/>
<path class="st0" d="M94.25,80.72c-0.08-10.04,2.67-18.42,7.97-25.95c4.74-6.73,10.94-11.72,18.53-15
	c3.41-1.47,6.95-2.46,10.59-3.07c3.19-0.53,6.43-0.66,9.64-0.41c9.13,0.7,17.34,3.83,24.51,9.61c5.52,4.44,9.71,9.89,12.6,16.33
	c1.65,3.68,2.73,7.53,3.32,11.54c0.47,3.21,0.49,6.44,0.31,9.64c-0.22,3.87-1.04,7.68-2.46,11.32c-0.66,1.68-2.45,2.71-4.2,2.46
	c-1.69-0.24-3.24-1.89-3.38-3.65c-0.05-0.65,0.18-1.26,0.39-1.86c1.04-2.95,1.6-5.98,1.85-9.11c0.58-7.31-1.02-14.09-4.65-20.43
	c-3.71-6.48-8.94-11.35-15.65-14.6c-4.23-2.05-8.7-3.17-13.44-3.46c-4.89-0.31-9.62,0.35-14.23,1.86
	c-4.19,1.37-7.94,3.54-11.33,6.38c-3.66,3.07-6.54,6.74-8.69,10.96c-1.86,3.65-3.13,7.53-3.59,11.64c-0.17,1.49-0.41,2.98-0.39,4.49
	c0.04,4.11,0.53,8.14,1.96,12.02c0.47,1.28,0.64,2.54-0.09,3.76c-0.83,1.38-2.07,2.12-3.69,1.98c-1.61-0.13-2.77-0.98-3.36-2.5
	c-0.84-2.16-1.46-4.39-1.85-6.66C94.46,85.35,94.07,82.66,94.25,80.72z"/>
<path class="st0" d="M120.92,80.71c-0.1,1.46,0.39,3.46,1.14,5.42c0.68,1.78,0.14,3.62-1.3,4.68c-1.38,1.02-3.29,0.97-4.79-0.14
	c-0.96-0.71-1.26-1.83-1.6-2.85c-0.85-2.58-1.35-5.26-1.29-7.98c0.11-5.52,1.78-10.51,5.14-14.93c3.87-5.1,9-8.23,15.22-9.39
	c7.13-1.33,13.71,0.24,19.56,4.6c5.5,4.1,8.62,9.66,9.71,16.34c0.7,4.3,0.14,8.54-1.53,12.59c-0.91,2.2-2.96,3.03-5.11,2.18
	c-1.96-0.77-2.87-2.99-2.09-5.11c2.06-5.59,1.47-10.91-1.87-15.8c-2.77-4.06-6.66-6.56-11.6-7.21c-6.44-0.85-11.73,1.26-15.86,6.27
	C122.09,72.47,120.92,76.05,120.92,80.71z"/>
</svg>
